<?xml version="1.0" encoding="iso-8859-1"?>
<!-- Generator: Adobe Illustrator 19.0.0, SVG Export Plug-In . SVG Version: 6.00 Build 0)  -->
<svg version="1.1" id="Capa_1" xmlns="http://www.w3.org/2000/svg" xmlns:xlink="http://www.w3.org/1999/xlink" x="0px" y="0px"
	 viewBox="0 0 512 512" style="enable-background:new 0 0 512 512;" xml:space="preserve">
<g>
	<g>
		<path d="M393.174,435.638c-39.671,30.321-87.106,46.347-137.175,46.347c-50.07,0-97.504-16.027-137.175-46.347l-18.227,23.848
			C145.547,493.841,199.284,512,255.999,512s110.452-18.159,155.402-52.514L393.174,435.638z"/>
	</g>
</g>
<g>
	<g>
		<path d="M432.086,299.896L432.086,299.896c-17.601-0.001-33.363-10.133-41.135-26.444
			C361.692,212.056,270.349,28.787,269.43,26.943L255.999,0l-13.431,26.943c-0.919,1.845-92.263,185.112-121.52,246.51
			c-7.773,16.311-23.535,26.443-41.135,26.443H64.906v90.044h15.007c22.559,0,44.626,7.689,62.137,21.648l0.245,0.191
			c15.779,12.053,33.348,21.635,51.917,28.406c0.914,0.357,1.838,0.701,2.778,1.013c10.23,3.512,20.727,6.237,31.391,8.037
			l4.996-29.597c-9.652-1.63-19.15-4.143-28.364-7.469c-10.18-4.047-16.925-13.988-16.925-25.232c0-3.43,0.629-6.764,1.872-9.911
			L256,209.674l66.042,167.355c1.242,3.147,1.872,6.481,1.872,9.91c0,11.245-6.745,21.185-16.925,25.232
			c-9.215,3.325-18.712,5.839-28.364,7.469l4.996,29.597c10.663-1.8,21.16-4.526,31.377-8.078c0.953-0.271,1.877-0.615,2.791-0.972
			c18.568-6.771,36.137-16.354,51.917-28.406l0.245-0.191c17.51-13.959,39.578-21.648,62.137-21.648h15.007v-90.044H432.086z"/>
	</g>
</g>
<g>
</g>
<g>
</g>
<g>
</g>
<g>
</g>
<g>
</g>
<g>
</g>
<g>
</g>
<g>
</g>
<g>
</g>
<g>
</g>
<g>
</g>
<g>
</g>
<g>
</g>
<g>
</g>
<g>
</g>
</svg>
