<?xml version="1.0" encoding="iso-8859-1"?>
<!-- Generator: Adobe Illustrator 19.0.0, SVG Export Plug-In . SVG Version: 6.00 Build 0)  -->
<svg version="1.1" id="Capa_1" xmlns="http://www.w3.org/2000/svg" xmlns:xlink="http://www.w3.org/1999/xlink" x="0px" y="0px"
	 viewBox="0 0 512 512" style="enable-background:new 0 0 512 512;" xml:space="preserve">
<g>
	<g>
		<path d="M256,0c-52.264,0-105,13.914-105,45s52.736,45,105,45c52.264,0,105-13.914,105-45S308.264,0,256,0z M256,60
			c-41.459,0-66.596-9.455-73.639-15c7.043-5.545,32.179-15,73.639-15c41.459,0,66.596,9.455,73.639,15
			C322.596,50.545,297.459,60,256,60z"/>
	</g>
</g>
<g>
	<g>
		<path d="M497,180c-5.521,0-116.463,0-121,0c-16.005,0-31.363,3.659-45.166,10.255C328.376,151.104,295.76,120,256,120
			s-72.376,31.104-74.834,70.255C167.363,183.659,152.005,180,136,180c-4.62,0-115.396,0-121,0c-8.284,0-15,6.716-15,15
			c0,24.162,11.631,45.623,30.007,59.549C30.002,254.699,30,254.849,30,255c0,24.459,11.937,46.315,31.007,60.289
			C61.165,356.511,94.742,390,136,390h12.229c-2.919,23.817-8.11,47.208-15.433,69.177l-11.026,33.079
			c-1.524,4.574-0.757,9.603,2.062,13.514c2.819,3.912,7.346,6.23,12.168,6.23c11.693,0,227.97,0,240,0
			c4.821,0,9.35-2.318,12.169-6.229c2.819-3.912,3.586-8.94,2.062-13.514l-11.026-33.079c-7.323-21.97-12.514-45.362-15.433-69.178
			H376c41.355,0,75-33.645,75-75c0-0.014-0.002-0.028-0.002-0.042c18.133-13.643,29.909-35.302,30.001-59.669
			C500.135,241.265,512,219.368,512,195C512,186.716,505.284,180,497,180z M256,150c24.813,0,45,20.187,45,45s-20.187,45-45,45
			s-45-20.187-45-45S231.187,150,256,150z M297.329,282.457L256,323.787l-41.329-41.329C226.53,274.594,240.736,270,256,270
			C271.264,270,285.47,274.594,297.329,282.457z M150.688,360H136c-19.556,0-36.239-12.539-42.43-30h17.551c8.284,0,15-6.716,15-15
			s-6.716-15-15-15H106c-19.59,0-36.791-12.718-43.265-30H106c8.284,0,15-6.716,15-15s-6.716-15-15-15H76
			c-19.59,0-36.791-12.718-43.265-30c19.166,0,83.928,0,103.265,0c29.604,0,56.13,17.47,68.183,43.704
			c-7.847,4.471-15.062,9.926-21.481,16.193c-0.323,0.273-0.643,0.552-0.948,0.857c-0.304,0.304-0.583,0.624-0.856,0.947
			C162.412,290.637,151,316.509,151,345C151,349.995,150.893,354.998,150.688,360z M192.299,482h-35.487l4.445-13.336
			C174.173,429.916,181,387.153,181,345c0-15.264,4.594-29.47,12.458-41.329L241,351.213v46.705
			C241,432.521,221.559,465.859,192.299,482z M239.377,482c6.441-7.339,12.018-15.44,16.623-24.104
			c4.605,8.665,10.182,16.766,16.623,24.104H239.377z M319.701,482C290.442,465.859,271,432.521,271,397.918v-46.705l47.543-47.543
			C326.406,315.53,331,329.736,331,345c0,42.152,6.827,84.914,19.743,123.664L355.188,482H319.701z M436,240h-30
			c-8.284,0-15,6.716-15,15s6.716,14.9,15,14.9h42.43C442.24,287.361,425.557,300,406,300h-5.121c-8.284,0-15,6.716-15,15
			s6.716,14.9,15,14.9h17.551C412.24,347.361,395.557,360,376,360h-14.688c-0.205-5.002-0.312-10.005-0.312-15
			c0-28.492-11.412-54.364-29.899-73.301c-0.272-0.322-0.551-0.642-0.854-0.945c-0.303-0.303-0.623-0.582-0.945-0.855
			c-6.42-6.268-13.636-11.723-21.483-16.195C319.87,227.471,346.396,209.9,376,209.9c19.337,0,84.099,0,103.265,0
			C472.791,227.182,455.59,240,436,240z"/>
	</g>
</g>
<g>
</g>
<g>
</g>
<g>
</g>
<g>
</g>
<g>
</g>
<g>
</g>
<g>
</g>
<g>
</g>
<g>
</g>
<g>
</g>
<g>
</g>
<g>
</g>
<g>
</g>
<g>
</g>
<g>
</g>
</svg>
